<svg xmlns="http://www.w3.org/2000/svg"
     xmlns:xlink="http://www.w3.org/1999/xlink"
     version="1.1"
     x="0px"
     y="0px"
     viewBox="0 0 60 75"
     style="enable-background:new 0 0 60 60;"
     xml:space="preserve">
<g>
<path d="M59,58H1c-0.552,0-1-0.448-1-1v-5c0-2.987,14.615-9.682,20.327-10.891c0.699-1.401,1.461-2.974,1.636-3.809   c-0.673-1.007-0.885-2.607-0.943-4.146c-1.052-0.088-1.439-1.252-1.968-2.838c-0.831-2.493-1.212-7.958-0.204-9.622   C18.102,17.825,17.593,9.64,19.6,6.393c0.805-1.303,1.823-1.576,2.535-1.576c0.143,0,0.287,0.011,0.434,0.033   C24.23,2.846,28.078,2,30,2c5.318,0,11,2.627,11,10v8.482c0.027,0.032,0.055,0.067,0.081,0.104c1.097,1.521,0.718,7.18-0.132,9.73   c-0.529,1.586-0.917,2.749-1.969,2.838c-0.058,1.539-0.27,3.141-0.942,4.146c0.175,0.834,0.938,2.406,1.636,3.809   C45.385,42.318,60,49.013,60,52v5C60,57.552,59.552,58,59,58z M2,56h56v-3.896c-0.962-1.764-13.207-8.123-19.165-9.116   c-0.315-0.054-0.587-0.253-0.729-0.539C36.795,39.828,36,38.154,36,37.001c0-0.265,0.105-0.521,0.293-0.707   C36.505,36.081,37,35.236,37,32.001c0-0.552,0.447-1,1-1c0.212,0,0.395,0.026,0.545,0.06c0.105-0.237,0.266-0.652,0.506-1.375   c0.835-2.505,0.831-6.79,0.458-7.812C39.205,21.7,39,21.374,39,21v-9c0-7.221-6.294-8-9-8c-1.966,0-5.396,1.028-6.105,2.447   c-0.233,0.464-0.783,0.674-1.266,0.48c-0.185-0.074-0.351-0.112-0.494-0.112c-0.122,0-0.446,0-0.834,0.627   c-1.746,2.825-1.078,11.765-0.406,13.108c0.155,0.31,0.138,0.678-0.044,0.973c-0.09,0.146-0.215,0.264-0.36,0.345   c-0.373,1.021-0.377,5.307,0.458,7.813c0.242,0.726,0.402,1.142,0.507,1.378c0.151-0.037,0.333-0.063,0.544-0.063   c0.552,0,1,0.448,1,1c0,3.236,0.495,4.08,0.707,4.293C23.895,36.479,24,36.732,24,36.998c0,1.152-0.795,2.827-2.105,5.447   c-0.143,0.285-0.415,0.486-0.73,0.539C15.207,43.977,2.963,50.337,2,52.1V56L2,56z" />
</g>

</svg>